<?xml version="1.0" standalone="no"?>
<svg xmlns:xlink="http://www.w3.org/1999/xlink" id="wave" style="transform:rotate(180deg); transition: 0.3s" viewBox="0 0 1440 490" version="1.1" xmlns="http://www.w3.org/2000/svg"><defs><linearGradient id="sw-gradient-0" x1="0" x2="0" y1="1" y2="0"><stop stop-color="rgba(125, 240, 187, 1)" offset="0%"/><stop stop-color="rgba(0, 235, 245, 1)" offset="100%"/></linearGradient></defs><path style="transform:translate(0, 0px); opacity:1" fill="url(#sw-gradient-0)" d="M0,147L34.3,163.3C68.6,180,137,212,206,253.2C274.3,294,343,343,411,343C480,343,549,294,617,294C685.7,294,754,343,823,318.5C891.4,294,960,196,1029,138.8C1097.1,82,1166,65,1234,106.2C1302.9,147,1371,245,1440,269.5C1508.6,294,1577,245,1646,212.3C1714.3,180,1783,163,1851,147C1920,131,1989,114,2057,138.8C2125.7,163,2194,229,2263,212.3C2331.4,196,2400,98,2469,73.5C2537.1,49,2606,98,2674,114.3C2742.9,131,2811,114,2880,114.3C2948.6,114,3017,131,3086,122.5C3154.3,114,3223,82,3291,89.8C3360,98,3429,147,3497,155.2C3565.7,163,3634,131,3703,122.5C3771.4,114,3840,131,3909,114.3C3977.1,98,4046,49,4114,57.2C4182.9,65,4251,131,4320,155.2C4388.6,180,4457,163,4526,147C4594.3,131,4663,114,4731,89.8C4800,65,4869,33,4903,16.3L4937.1,0L4937.1,490L4902.9,490C4868.6,490,4800,490,4731,490C4662.9,490,4594,490,4526,490C4457.1,490,4389,490,4320,490C4251.4,490,4183,490,4114,490C4045.7,490,3977,490,3909,490C3840,490,3771,490,3703,490C3634.3,490,3566,490,3497,490C3428.6,490,3360,490,3291,490C3222.9,490,3154,490,3086,490C3017.1,490,2949,490,2880,490C2811.4,490,2743,490,2674,490C2605.7,490,2537,490,2469,490C2400,490,2331,490,2263,490C2194.3,490,2126,490,2057,490C1988.6,490,1920,490,1851,490C1782.9,490,1714,490,1646,490C1577.1,490,1509,490,1440,490C1371.4,490,1303,490,1234,490C1165.7,490,1097,490,1029,490C960,490,891,490,823,490C754.3,490,686,490,617,490C548.6,490,480,490,411,490C342.9,490,274,490,206,490C137.1,490,69,490,34,490L0,490Z"/></svg>